<?xml version="1.0" standalone="no"?>
<!DOCTYPE svg PUBLIC "-//W3C//DTD SVG 20010904//EN"
 "http://www.w3.org/TR/2001/REC-SVG-20010904/DTD/svg10.dtd">
<svg version="1.0" xmlns="http://www.w3.org/2000/svg"
 width="860.000000pt" height="860.000000pt" viewBox="0 0 860.000000 860.000000"
 preserveAspectRatio="xMidYMid meet">
<metadata>
Created by potrace 1.14, written by Peter Selinger 2001-2017
</metadata>
<g transform="translate(0.000000,860.000000) scale(0.100000,-0.100000)"
fill="#000000" stroke="none">
<path d="M0 4300 l0 -3480 4300 0 4300 0 0 3480 0 3480 -4300 0 -4300 0 0
-3480z m4937 2895 c37 -71 58 -100 148 -196 271 -291 405 -440 478 -533 27
-33 75 -88 106 -121 48 -51 180 -205 356 -416 147 -177 324 -380 412 -472 57
-59 120 -131 142 -160 21 -29 46 -59 56 -67 29 -24 122 -144 129 -167 5 -16
-5 -35 -43 -80 -58 -70 -418 -450 -430 -455 -5 -2 -53 -46 -108 -98 -137 -132
-352 -325 -426 -384 -34 -26 -102 -83 -152 -125 -49 -42 -108 -90 -130 -106
-90 -66 -274 -216 -341 -276 -86 -78 -249 -215 -364 -305 -47 -37 -107 -88
-135 -114 -27 -26 -93 -81 -146 -123 -53 -41 -157 -126 -230 -189 -74 -63
-183 -152 -244 -198 -60 -46 -112 -87 -115 -91 -8 -11 -142 -109 -149 -109
-15 0 -51 33 -70 64 -12 19 -38 51 -59 73 -49 51 -158 174 -191 217 -14 19
-68 82 -118 140 -51 58 -115 140 -143 181 -27 42 -96 128 -152 192 -144 164
-227 263 -310 373 -40 52 -104 131 -143 175 -39 44 -87 100 -106 125 -19 25
-78 90 -131 145 -53 55 -114 123 -135 150 -22 28 -48 57 -58 65 -10 8 -38 46
-64 85 -25 38 -70 95 -100 125 -30 30 -70 72 -89 93 l-35 38 54 50 c50 47 142
124 229 194 236 189 301 249 419 385 31 36 67 74 81 85 14 11 41 35 61 55 217
211 510 487 566 532 60 47 275 230 363 308 97 86 226 192 355 294 57 44 141
110 186 146 45 36 99 76 120 90 20 14 66 52 102 85 159 145 262 231 307 255
33 17 69 45 137 104 64 56 61 57 110 -39z m1822 -2319 c10 -11 1 -20 -45 -45
-32 -17 -59 -30 -60 -28 -6 5 70 87 81 87 7 0 18 -6 24 -14z m-119 -90 c0 -3
-4 -8 -10 -11 -5 -3 -10 -1 -10 4 0 6 5 11 10 11 6 0 10 -2 10 -4z m31 -127
c16 -18 28 -36 26 -42 -2 -6 -33 -29 -70 -51 -36 -23 -92 -66 -124 -96 -32
-31 -74 -68 -93 -84 -19 -15 -109 -100 -200 -189 -205 -200 -372 -356 -870
-815 -58 -53 -160 -147 -225 -208 -207 -192 -346 -317 -402 -364 -31 -25 -94
-79 -142 -121 -70 -61 -230 -186 -429 -334 -15 -11 -54 -43 -87 -70 -94 -80
-189 -151 -221 -168 -16 -8 -37 -24 -47 -35 -10 -11 -33 -26 -50 -33 -18 -7
-40 -19 -49 -27 -17 -14 -18 -13 -18 15 0 30 -51 113 -69 113 -17 0 -186 180
-255 270 -22 31 -86 111 -141 179 -55 68 -133 167 -173 220 -40 53 -83 107
-96 121 -52 56 -160 187 -181 220 -13 19 -58 74 -101 121 -44 47 -86 95 -95
106 -9 11 -50 62 -91 114 -42 52 -100 122 -129 155 -75 85 -298 354 -367 442
-27 35 -31 46 -22 57 7 8 18 15 24 15 21 0 119 -114 211 -245 27 -38 83 -113
124 -165 42 -52 93 -120 115 -150 40 -57 127 -158 251 -291 38 -42 86 -93 105
-115 219 -243 284 -316 316 -359 20 -27 72 -88 114 -135 42 -47 81 -92 86
-101 10 -19 149 -179 245 -283 83 -90 96 -111 102 -165 3 -24 11 -47 18 -53
20 -13 76 -2 97 18 9 10 62 47 117 82 55 36 113 76 129 89 16 13 50 35 75 49
25 13 66 40 91 59 25 20 87 68 139 108 137 105 240 195 381 333 107 104 460
415 594 522 22 19 86 75 141 125 142 131 204 187 255 232 232 201 706 664 755
737 68 99 179 228 198 228 5 0 22 -14 38 -31z m-269 -136 c-41 -60 -114 -138
-242 -258 -41 -39 -138 -131 -215 -205 -77 -74 -178 -169 -224 -210 -47 -41
-110 -97 -141 -125 -31 -27 -80 -70 -110 -95 -29 -25 -67 -59 -84 -76 -17 -18
-53 -51 -81 -74 -27 -23 -87 -76 -133 -118 -46 -41 -95 -85 -111 -96 -84 -64
-299 -253 -387 -342 -207 -208 -422 -380 -743 -593 -152 -100 -186 -119 -193
-107 -5 9 -15 16 -23 16 -14 0 -163 164 -288 319 -43 53 -106 128 -140 166
-35 39 -99 115 -144 170 -86 108 -325 377 -457 515 -45 47 -101 112 -126 144
-164 210 -272 355 -337 449 -49 70 -203 242 -243 272 -15 10 -38 34 -51 53
l-23 34 25 19 c13 10 29 19 35 19 11 0 56 -45 70 -72 12 -22 134 -164 215
-252 37 -39 86 -94 110 -123 24 -29 89 -103 144 -164 55 -62 124 -145 155
-184 84 -110 166 -209 229 -278 61 -65 209 -256 231 -296 7 -13 25 -38 40 -55
124 -141 188 -215 260 -301 46 -55 86 -102 89 -105 18 -15 91 -109 91 -117 0
-5 16 -24 34 -42 25 -24 36 -44 38 -70 3 -33 6 -36 36 -39 31 -3 83 25 117 64
22 25 248 206 291 234 26 16 65 46 88 68 63 59 202 177 332 282 65 52 152 126
193 164 42 37 117 99 166 136 50 38 133 107 185 154 125 113 322 274 465 380
33 25 75 58 92 75 18 16 66 55 105 86 148 116 234 193 618 563 41 39 76 72 78
72 1 0 -15 -26 -36 -57z m193 -128 l30 -25 -50 -46 c-27 -25 -106 -99 -175
-165 -69 -65 -150 -137 -180 -161 -61 -47 -164 -137 -274 -238 -39 -36 -91
-81 -115 -100 -24 -19 -48 -39 -55 -45 -70 -62 -153 -129 -263 -211 -208 -157
-470 -407 -663 -633 -47 -54 -252 -249 -330 -312 -25 -20 -72 -60 -105 -88
-33 -28 -96 -79 -140 -113 -44 -34 -82 -64 -85 -68 -24 -26 -368 -288 -452
-343 -64 -42 -74 -44 -82 -19 -3 9 -21 33 -38 53 -18 20 -60 67 -93 104 -33
38 -85 96 -116 129 -285 311 -353 391 -516 606 -76 102 -161 214 -189 250 -28
36 -79 106 -112 155 -34 50 -74 104 -89 120 -16 17 -46 53 -67 80 -22 28 -58
70 -80 95 -41 45 -74 84 -177 210 -29 36 -56 67 -59 70 -3 3 -17 21 -30 40
-13 19 -49 61 -79 93 -53 56 -54 57 -36 77 26 29 38 25 78 -22 19 -24 43 -52
53 -64 103 -116 213 -247 250 -299 26 -36 226 -269 245 -285 3 -3 30 -37 60
-76 30 -38 80 -101 113 -140 32 -38 69 -87 83 -109 14 -22 49 -65 77 -96 90
-99 199 -227 230 -273 106 -152 116 -165 278 -333 76 -79 106 -125 132 -196 3
-11 14 -21 24 -23 9 -3 27 -21 40 -40 25 -39 58 -45 84 -14 9 10 36 32 60 47
24 15 119 88 211 162 93 74 182 144 198 155 112 82 378 288 394 306 11 12 54
50 95 83 41 34 133 113 204 176 70 64 140 126 155 139 14 13 75 69 134 125
433 406 446 418 500 461 60 48 336 313 562 540 164 166 299 286 320 286 5 0
24 -11 40 -25z m-11 -191 c9 -8 16 -18 16 -21 0 -3 -44 -49 -98 -102 -54 -53
-114 -114 -133 -136 -81 -90 -588 -568 -737 -694 -129 -109 -205 -176 -314
-276 -55 -49 -119 -106 -144 -125 -26 -19 -78 -64 -118 -100 -39 -36 -91 -81
-116 -100 -94 -72 -202 -172 -400 -371 -225 -225 -302 -292 -460 -395 -126
-82 -190 -128 -292 -211 -42 -34 -88 -65 -102 -69 -14 -3 -31 -12 -37 -20 -10
-13 -16 -11 -41 12 -15 15 -28 33 -28 40 0 7 -6 19 -13 26 -25 25 -133 153
-202 238 -37 47 -96 114 -130 150 -35 36 -86 92 -114 125 -28 33 -85 98 -126
145 -41 47 -113 135 -158 195 -46 61 -111 142 -146 180 -34 39 -94 114 -133
169 -38 54 -78 108 -88 120 -11 11 -34 40 -52 62 -128 161 -194 241 -208 251
-9 6 -34 40 -55 75 -22 35 -58 86 -81 115 -24 29 -54 72 -69 96 -25 44 -25 46
-8 81 9 20 22 36 28 36 7 0 33 -26 58 -58 25 -32 71 -87 104 -123 129 -144
311 -365 361 -437 29 -42 68 -99 86 -127 19 -27 43 -59 53 -70 26 -28 87 -110
130 -175 20 -30 51 -71 70 -90 18 -19 33 -38 33 -41 0 -8 99 -128 159 -194 20
-22 74 -83 121 -135 46 -52 121 -133 165 -180 82 -87 245 -284 245 -298 1 -18
68 -81 90 -84 20 -2 28 5 45 37 15 28 57 68 137 130 64 50 175 137 248 195 72
58 157 124 188 148 32 24 86 70 122 101 36 32 92 80 125 106 33 27 94 81 135
121 41 39 90 84 108 99 19 16 72 72 118 126 95 111 396 415 464 470 25 20 59
48 75 61 17 13 71 53 120 88 50 35 108 80 130 100 22 21 80 70 129 108 49 39
123 104 166 144 89 85 201 184 242 214 45 34 190 166 223 203 43 49 77 81 86
81 4 0 15 -7 23 -16z m-26 -186 c19 -19 14 -31 -29 -63 -22 -16 -57 -46 -77
-65 -21 -19 -56 -48 -77 -65 -22 -16 -61 -50 -86 -75 -25 -25 -142 -137 -260
-250 -196 -187 -318 -308 -468 -463 -31 -32 -94 -93 -141 -135 -46 -43 -127
-118 -180 -168 -52 -50 -145 -136 -206 -190 -60 -54 -146 -131 -190 -170 -43
-40 -106 -94 -139 -120 -32 -27 -86 -74 -120 -105 -33 -30 -96 -84 -140 -120
-44 -35 -87 -71 -95 -79 -9 -8 -108 -89 -220 -180 -185 -150 -256 -211 -358
-307 -18 -18 -36 -33 -39 -33 -3 0 -21 -16 -40 -35 -19 -19 -38 -35 -42 -35
-21 0 -165 159 -255 280 -43 58 -99 128 -126 155 -26 28 -63 71 -81 96 -67 91
-243 305 -300 364 -31 33 -93 102 -136 153 -81 98 -84 101 -198 247 -68 88
-227 285 -313 388 -24 29 -60 77 -80 107 -58 87 -92 132 -139 181 -46 48 -49
72 -11 83 27 7 29 5 63 -46 16 -24 50 -65 76 -93 26 -27 69 -78 96 -112 26
-34 83 -104 125 -156 43 -52 78 -98 78 -102 0 -3 15 -25 33 -48 86 -111 122
-155 151 -187 17 -19 69 -84 115 -145 46 -60 103 -130 126 -155 23 -25 50 -59
61 -75 10 -17 39 -50 64 -75 180 -183 456 -507 482 -567 7 -15 27 -45 45 -67
17 -21 33 -48 35 -60 5 -36 45 -47 113 -31 34 7 65 21 72 32 39 55 138 134
363 288 177 121 274 207 515 455 61 63 139 139 175 169 36 31 70 61 75 67 6 6
53 46 105 90 52 43 112 94 133 114 21 19 55 46 76 60 21 14 92 75 157 136 65
62 140 129 166 150 243 200 906 826 1000 944 26 34 29 35 46 18z"/>
<path d="M4375 6356 c-34 -15 -118 -114 -200 -237 -87 -129 -95 -179 -35 -213
26 -16 52 -20 105 -20 78 1 121 18 155 61 22 28 24 74 6 116 -7 14 -3 17 19
17 76 0 135 86 117 168 -13 58 -37 91 -77 108 -41 17 -51 17 -90 0z m82 -78
c66 -62 -24 -162 -127 -142 -59 12 -56 27 22 98 40 36 75 66 77 66 3 0 15 -10
28 -22z m-152 -203 c40 -20 63 -59 49 -83 -24 -37 -158 -58 -171 -26 -8 20 25
92 51 110 26 18 31 18 71 -1z"/>
<path d="M4404 5876 c-65 -30 -104 -80 -104 -131 0 -52 65 -119 133 -136 26
-6 47 -13 47 -15 0 -2 -7 -19 -16 -38 -9 -19 -14 -41 -11 -50 9 -23 44 -20 58
5 6 12 43 55 81 97 39 42 77 92 85 111 26 61 -4 133 -67 166 -46 24 -146 19
-206 -9z m174 -56 c53 -24 54 -45 5 -92 -47 -44 -73 -58 -111 -58 -38 0 -96
40 -100 69 -6 37 39 76 103 92 47 11 57 10 103 -11z"/>
<path d="M4710 5618 c-19 -5 -46 -18 -60 -28 -40 -29 -81 -111 -82 -166 -1
-42 3 -51 35 -80 53 -49 124 -57 172 -19 19 14 19 15 2 29 -11 8 -37 18 -60
21 -41 7 -87 43 -87 68 0 40 108 122 152 115 13 -2 34 -21 51 -46 23 -35 32
-41 43 -31 21 17 17 72 -6 102 -20 25 -76 48 -110 46 -8 0 -31 -5 -50 -11z"/>
<path d="M5073 5533 c-34 -30 -169 -198 -221 -276 -58 -85 -70 -116 -51 -128
26 -16 37 -9 70 42 l32 51 22 -60 c41 -114 82 -157 113 -119 9 11 3 36 -28
112 -22 54 -40 102 -40 107 0 5 49 8 110 7 122 -3 147 6 116 40 -21 23 -88 41
-151 41 -43 0 -45 1 -35 21 6 11 38 47 72 79 38 38 59 65 56 77 -4 25 -40 28
-65 6z"/>
<path d="M3793 5366 c-97 -91 -198 -230 -218 -301 -16 -54 -12 -85 10 -85 17
0 84 75 100 113 l13 30 17 -26 c9 -14 29 -69 44 -121 31 -107 54 -149 79 -144
28 6 18 83 -25 211 -45 130 -44 132 39 116 23 -4 65 -8 91 -9 41 0 53 5 78 29
16 16 29 38 29 48 0 59 -115 213 -159 213 -11 0 -55 -33 -98 -74z m137 -46
c32 -35 51 -82 40 -99 -20 -33 -200 -12 -200 24 0 17 99 105 118 105 8 0 27
-14 42 -30z"/>
<path d="M5195 5111 c-47 -55 -90 -103 -96 -106 -25 -16 -89 -109 -89 -130 0
-50 29 -33 138 79 180 186 223 256 158 256 -19 0 -45 -23 -111 -99z"/>
<path d="M4003 4910 c-98 -99 -179 -184 -181 -189 -1 -4 4 -13 12 -20 19 -16
39 -5 118 65 42 37 66 53 77 48 94 -40 195 -47 256 -18 67 31 94 99 63 157
-36 68 -112 137 -152 137 -8 0 -95 -81 -193 -180z m241 69 c32 -25 58 -72 50
-92 -15 -41 -123 -54 -185 -22 l-34 18 65 58 c35 33 67 59 71 59 3 0 18 -9 33
-21z"/>
<path d="M5195 4926 c-60 -27 -101 -95 -90 -147 9 -38 76 -96 120 -105 20 -3
61 -4 91 -2 61 5 106 37 130 95 22 51 17 73 -24 112 -60 57 -159 77 -227 47z
m168 -85 c57 -22 20 -91 -57 -105 -47 -9 -107 13 -125 46 -15 25 -14 29 9 54
23 24 29 26 85 21 34 -3 73 -10 88 -16z"/>
<path d="M4300 4720 c-136 -24 -222 -111 -223 -223 -1 -118 110 -230 230 -231
44 -1 56 3 82 28 48 46 43 87 -18 147 -37 38 -55 49 -80 49 -62 0 -53 -50 15
-86 48 -25 58 -60 20 -70 -36 -9 -66 1 -108 33 -111 85 -99 199 27 266 57 30
181 31 221 1 33 -24 40 -37 54 -91 12 -48 41 -59 60 -23 14 25 -19 106 -58
143 -51 49 -140 72 -222 57z"/>
<path d="M5400 4683 c-43 -36 -53 -66 -36 -107 17 -41 81 -94 123 -102 26 -5
33 -11 33 -29 0 -52 -151 -231 -215 -255 -34 -13 -81 -13 -108 1 -12 6 -43 34
-69 62 -35 39 -49 49 -58 41 -17 -17 20 -84 72 -128 117 -100 233 -58 370 134
85 120 177 280 171 298 -20 56 -123 112 -208 112 -33 0 -51 -7 -75 -27z m160
-53 c64 -33 51 -73 -26 -86 -57 -9 -114 16 -114 50 0 53 71 71 140 36z"/>
<path d="M4514 4345 c-31 -16 -64 -61 -64 -90 0 -26 28 -74 72 -121 l40 -43
-24 -11 c-16 -8 -42 -8 -83 -2 -67 11 -75 9 -75 -18 0 -30 38 -44 117 -44 58
0 78 4 100 20 47 35 42 64 -22 134 -63 68 -68 96 -22 118 24 12 33 11 83 -12
81 -37 96 -35 92 11 -2 31 -9 41 -33 52 -44 22 -143 25 -181 6z"/>
</g>
</svg>
